<svg id="visual" viewBox="0 0 960 540" width="960" height="540" xmlns="http://www.w3.org/2000/svg" xmlns:xlink="http://www.w3.org/1999/xlink" version="1.1"><rect x="0" y="0" width="960" height="540" fill="#0066FF"></rect><defs><linearGradient id="grad1_0" x1="43.8%" y1="0%" x2="100%" y2="100%"><stop offset="14.444444444444446%" stop-color="#0066ff" stop-opacity="1"></stop><stop offset="85.55555555555554%" stop-color="#0066ff" stop-opacity="1"></stop></linearGradient></defs><defs><linearGradient id="grad2_0" x1="0%" y1="0%" x2="56.3%" y2="100%"><stop offset="14.444444444444446%" stop-color="#0066ff" stop-opacity="1"></stop><stop offset="85.55555555555554%" stop-color="#0066ff" stop-opacity="1"></stop></linearGradient></defs><g transform="translate(960, 0)"><path d="M0 324C-44.9 322.5 -89.9 320.9 -124 299.3C-158.1 277.7 -181.4 236.1 -201.5 201.5C-221.7 167 -238.8 139.6 -258.7 107.2C-278.6 74.8 -301.3 37.4 -324 0L0 0Z" fill="#4FACF7"></path></g><g transform="translate(0, 540)"><path d="M0 -324C37.3 -308.4 74.7 -292.8 116 -279.9C157.3 -267.1 202.5 -257 229.1 -229.1C255.7 -201.2 263.5 -155.6 276.2 -114.4C288.9 -73.3 306.5 -36.6 324 0L0 0Z" fill="#4FACF7"></path></g></svg>